<svg width="48" height="48" viewBox="0 0 48 48" fill="none" xmlns="http://www.w3.org/2000/svg">
<path fill-rule="evenodd" clip-rule="evenodd" d="M40 6H8C6.93913 6 5.92172 6.42143 5.17157 7.17157C4.42143 7.92172 4 8.93913 4 10V22C4 27.3043 6.10714 32.3914 9.85786 36.1421C11.715 37.9993 13.9198 39.4725 16.3463 40.4776C18.7728 41.4827 21.3736 42 24 42C29.3043 42 34.3914 39.8929 38.1421 36.1421C41.8929 32.3914 44 27.3043 44 22V10C44 8.93913 43.5786 7.92172 42.8284 7.17157C42.0783 6.42143 41.0609 6 40 6ZM33.4142 21.4142C34.1953 20.6332 34.1953 19.3668 33.4142 18.5858C32.6332 17.8047 31.3668 17.8047 30.5858 18.5858L24.0764 25.0952L20.9866 21.6621C20.2477 20.8411 18.9831 20.7745 18.1621 21.5134C17.3411 22.2523 17.2745 23.5169 18.0134 24.3379L22.5134 29.3379C22.8805 29.7458 23.3989 29.9849 23.9474 29.9993C24.4959 30.0137 25.0262 29.8022 25.4142 29.4142L33.4142 21.4142Z" fill="black"/>
</svg>
